<?xml version="1.0" encoding="UTF-8"?>
<svg id="icons" xmlns="http://www.w3.org/2000/svg" width="64" height="64" xmlns:xlink="http://www.w3.org/1999/xlink" viewBox="0 0 64 64">
  <defs>
    <linearGradient id="linear-gradient" x1="-528.233" y1="-607.604" x2="-528.233" y2="-575.659" gradientTransform="translate(564 -562.608) scale(1 -1)" gradientUnits="userSpaceOnUse">
      <stop offset="0" stop-color="#004dae"/>
      <stop offset=".21" stop-color="#0061c4"/>
      <stop offset=".51" stop-color="#0078dd"/>
      <stop offset=".78" stop-color="#0086ec"/>
      <stop offset="1" stop-color="#008bf1"/>
    </linearGradient>
  </defs>
  <g>
    <path d="m58.287,34.977c-.162-4.952-3.873-9.065-8.783-9.734-.311-6.97-6.163-12.398-13.137-12.186-5.56-.103-10.577,3.319-12.511,8.533-5.921.715-10.43,5.65-10.609,11.61.258,6.754,5.932,12.025,12.686,11.786h21.644c.183.014.367.014.55,0,5.531-.052,10.024-4.48,10.159-10.009Z" fill="url(#linear-gradient)"/>
    <path d="m58.023,16.435c-2.003-3.309-6.679-4.614-13.205-3.643h-.789l5.798,3.036c.993-.063,1.987.11,2.9.506.913.396,1.719,1.003,2.352,1.771,1.214,2.034.182,5.495-2.823,9.532-4.204,5.2-9.354,9.557-15.179,12.841-5.616,3.57-11.859,6.043-18.397,7.286-4.979.759-8.53,0-9.745-2.004-1.214-2.003-.273-5.13,2.338-8.864v-5.555c-.82.941-1.518,1.852-2.277,2.854-3.916,5.252-5.009,9.988-3.036,13.327,1.05,1.386,2.441,2.477,4.036,3.168,1.595.691,3.342.959,5.071.779,1.331-.003,2.66-.105,3.977-.304,6.999-1.291,13.692-3.886,19.732-7.65,6.182-3.529,11.641-8.195,16.089-13.752,4.068-5.252,5.161-9.988,3.157-13.327Z" fill="#ff7381"/>
  </g>
  <rect y="0" width="64" height="64" fill="none"/>
</svg>