<?xml version="1.0" encoding="UTF-8"?>
<svg id="icons" xmlns="http://www.w3.org/2000/svg" width="64" height="64" viewBox="0 0 64 64">
  <path d="m4.835,14.724c0-4.824,3.911-8.734,8.734-8.734h26.988c4.824,0,8.734,3.911,8.734,8.734v14.238c-1.033.444-2,1.087-2.843,1.93l-1.921,1.921v-14.12H9.6v23.022c0,2.193,1.777,3.97,3.97,3.97h18.086l-.545.545c-1.179,1.179-2.048,2.629-2.533,4.219h-15.008c-4.824,0-8.734-3.91-8.734-8.734V14.724Z" fill="#008bf1"/>
  <path d="m25.017,24.582c.62-.62.62-1.626,0-2.246-.62-.62-1.626-.62-2.246,0l-7.94,7.94c-.62.62-.62,1.626,0,2.246l7.94,7.94c.62.62,1.626.62,2.246,0,.62-.62.62-1.626,0-2.246l-6.817-6.817,6.817-6.817Z" fill="#42e8ca"/>
  <path d="m30.71,40.463c-.62-.62-.62-1.626,0-2.246l6.818-6.817-6.818-6.817c-.62-.62-.62-1.626,0-2.246.62-.62,1.626-.62,2.246,0l7.94,7.94c.62.62.62,1.626,0,2.246l-7.94,7.941c-.62.62-1.626.62-2.246,0Z" fill="#42e8ca"/>
  <path d="m48.695,33.139l-15.339,15.339c-.894.894-1.529,2.015-1.836,3.242l-1.189,4.758c-.517,2.069,1.357,3.943,3.426,3.426l4.758-1.189c1.227-.307,2.347-.941,3.242-1.835l15.339-15.339c2.32-2.32,2.32-6.081,0-8.4-2.32-2.32-6.081-2.32-8.4,0Z" fill="#42e8ca"/>
</svg>