<svg xmlns="http://www.w3.org/2000/svg" viewBox="0 0 64 64"><g style="isolation:isolate"><path d="M55.57 44.24H8.43a1.33 1.33 0 0 1-1.32-1.32V12.38a1.33 1.33 0 0 1 1.32-1.32h47.9a.56.56 0 0 1 .56.55v31.31a1.33 1.33 0 0 1-1.32 1.32z" opacity=".3" fill="#414141"/><path d="M55.57 43.7H8.43a1.32 1.32 0 0 1-1.32-1.31V11.84a1.33 1.33 0 0 1 1.32-1.32h47.9a.56.56 0 0 1 .56.55v31.32a1.32 1.32 0 0 1-1.32 1.31z" fill="#e3e3e3" opacity=".3"/><path d="M7.93 10.52h48.93a.56.56 0 0 1 .56.56v6.06H6.58v-5.27a1.35 1.35 0 0 1 1.35-1.35z" fill="#adadad"/><circle fill="#919191" cx="16.97" cy="13.78" r="1.05"/><circle fill="#919191" cx="13.72" cy="13.78" r="1.05"/><circle fill="#919191" cx="10.47" cy="13.78" r="1.05"/><path d="M8.43 10.52h47.9a.55.55 0 0 1 .55.55v31.32a1.32 1.32 0 0 1-1.32 1.32H8.43a1.32 1.32 0 0 1-1.32-1.32V11.84a1.32 1.32 0 0 1 1.32-1.32z" stroke="#c8c8c8" stroke-width="1.17" fill="none" stroke-miterlimit="10"/><path fill="none" stroke-miterlimit="10" stroke="#919191" stroke-linecap="round" stroke-width="1.83" d="M20.42 24.24h17.39m-11.62 6.45h17.39m-2.93-6.45h2.93m-23.16 3.2h7.1m3.14 0h.94m3.14 0h.94m-15.26 3.28h2.61m15.66-3.28h4.89"/><path d="M44 53.78H20a.72.72 0 0 1-.72-.72V35a.72.72 0 0 1 .72-.72h24.42a.29.29 0 0 1 .3.3v18.48a.72.72 0 0 1-.72.72z" fill="#414141"/><path d="M44 53.48H20a.73.73 0 0 1-.72-.73V34.66a.73.73 0 0 1 .72-.73h24.42a.3.3 0 0 1 .3.31v18.51a.73.73 0 0 1-.72.73z" class="has-fill-current-color" fill="#0079d6"/><path fill="#fff" d="M40.21 44.08 35 46.58v-1.1l3.81-1.69L35 41.86v-1.1l5.2 2.71z"/><path fill="#fff" d="M35.01 40.76v1.1l3.81 1.89v.04l-3.81 1.69v1.1l5.2-2.5v-.61l-5.2-2.71zM29 46.62l-5.2-2.5v-.62l5.2-2.72v1.11l-3.8 1.89 3.8 1.74z"/><path fill="#fff" d="m28.99 40.78-5.2 2.72v.62l5.2 2.5v-1.1l-3.8-1.72v-.02l3.8-1.89v-1.11zm4.74-.73-3 7.31h-.93l3-7.31z"/><path fill="#fff" d="M33.73 40.05h-.94l-3.02 7.31h.93l3.03-7.31z"/></g></svg>