<svg xmlns="http://www.w3.org/2000/svg" height="64" width="64" viewBox="0 0 64 64"><defs><style>.cls-1{fill:#e3e3e3}.cls-4{fill:none;stroke-miterlimit:10;stroke-width:1.17px;stroke:#c8c8c8}</style></defs><g id="Layer_1" data-name="Layer 1"><path class="cls-1" d="M15.21 6.69h31.57v4.29H15.21z"/><path d="M41 57.87H9a4.09 4.09 0 0 1-4.09-4.09V16h4.85v32.9a4.09 4.09 0 0 0 4.09 4.1h23.06v1.37a4.1 4.1 0 0 0 4.09 3.5Z" style="fill:#acacac"/><path d="M9.76 16H4.85v37.8a4.09 4.09 0 0 0 4.09 4.09H41a4.1 4.1 0 0 1-4.05-3.51V53" style="stroke:#acacac;fill:none;stroke-miterlimit:10;stroke-width:1.17px"/><path class="cls-1" d="M45.87 53h-32a4.09 4.09 0 0 1-4.11-4.1V11.1h4.93v32.83A4.09 4.09 0 0 0 18.78 48h23v1.46A4.09 4.09 0 0 0 45.87 53Z"/><path class="cls-4" d="M14.69 11.1H9.76v37.8a4.09 4.09 0 0 0 4.09 4.1h32a4.09 4.09 0 0 1-4-3.51V48"/><path d="M50.8 48a4.1 4.1 0 0 1-4-3.51V6.11h-32v37.8A4.09 4.09 0 0 0 18.78 48Z" style="fill-opacity:.3;fill:#e3e3e3"/><path class="cls-4" d="M50.8 48a4.1 4.1 0 0 1-4-3.51V6.11h-32v37.8A4.09 4.09 0 0 0 18.78 48ZM27.28 19.78h14.33M27.28 27.96h14.33M27.28 36.74h14.33"/><path class="cls-4" d="m20.1 19.23 1.42 1.42 3.52-3.51M20.1 27.55l1.42 1.42 3.52-3.52M20.1 36.24l1.42 1.42 3.52-3.51"/><circle cx="50.35" cy="27.96" r="8.8" style="fill:#0079d6"/><path style="fill:#fff" d="m47 22.51.86 9.71 2.2-2.64 2.37 3.84 1.51-.87-2.37-3.94 3.51-.84L47 22.51z"/></g></svg>