<svg xmlns="http://www.w3.org/2000/svg" height="64" width="64" viewBox="0 0 64 64"><defs><style>.cls-4{fill:#c8c8c8}</style></defs><g id="Layer_1" data-name="Layer 1"><path style="fill:none" d="M0 0h64v64H0z"/><path d="M59.74 14.9v38.27a1.5 1.5 0 0 1-1.35 1.61H10.33A1.49 1.49 0 0 1 9 53.17V15.83a1.49 1.49 0 0 1 1.34-1.61h48.83a.63.63 0 0 1 .57.68Z" style="fill:#e2e2e2;fill-opacity:.5"/><path d="M55.49 10.7v3.47H10.33A1.49 1.49 0 0 0 9 15.78V50H5.47A1.48 1.48 0 0 1 4 48.49V10.7a1.48 1.48 0 0 1 1.47-1.48H54a1.49 1.49 0 0 1 1.49 1.48Z" style="fill:#acacac"/><path class="cls-4" d="M9.46 44.84h50.08a.48.48 0 0 1 .48.48v7.63a1.77 1.77 0 0 1-1.77 1.77H10.76A1.77 1.77 0 0 1 9 52.95v-7.63a.48.48 0 0 1 .46-.48Z"/><circle cx="34.24" cy="30.22" r="7" style="fill:#2f77bb"/><path d="M32.74 32v-3.79a.26.26 0 0 1 .4-.23l3.56 1.87a.27.27 0 0 1 0 .46l-3.56 1.87a.26.26 0 0 1-.4-.18Z" style="fill:#fff"/><path style="stroke:#acacac;stroke-miterlimit:10;stroke-width:1.25px;fill:none" d="M13.24 49.47h42.25"/><path class="cls-4" d="M58.64 15.51v37.6a.46.46 0 0 1-.07.27H10.4a.46.46 0 0 1-.07-.27V15.78a.46.46 0 0 1 .07-.27h48.24m.78-1.34H10.34A1.49 1.49 0 0 0 9 15.78v37.33a1.49 1.49 0 0 0 1.35 1.61h48.3A1.5 1.5 0 0 0 60 53.11V14.84a.63.63 0 0 0-.57-.67Z"/></g></svg>