<svg xmlns="http://www.w3.org/2000/svg" viewBox="0 0 16 16">
  <g id="canvas">
    <path d="M16,16H0V0H16Z" fill="none" opacity="0" />
  </g>
  <g id="level-1">
    <path d="M14.516,2.319,12.064,1.092a.876.876,0,0,0-1.01.164L6.091,6.219,2.943,3.8a.438.438,0,0,0-.42-.063L1.284,4.2A.437.437,0,0,0,1,4.614v6.393a.437.437,0,0,0,.284.41l1.239.464a.438.438,0,0,0,.42-.062L6.091,9.4l4.963,4.964a.874.874,0,0,0,1.01.163L14.516,13.3A.874.874,0,0,0,15,12.52V3.1A.874.874,0,0,0,14.516,2.319ZM2.75,9.56v-3.5L4.5,7.81Zm8.75.813L8.163,7.81,11.5,5.248Z" fill="#854cc7" fill-rule="evenodd" />
  </g>
</svg>